control3min_grf.mot
version=1
nRows=27
nColumns 19
inDegrees=yes
endheader
time	1_ground_force_vx	1_ground_force_vy	1_ground_force_vz	1_ground_force_px	1_ground_force_py	1_ground_force_pz	1_ground_torque_x	1_ground_torque_y	1_ground_torque_z	2_ground_force_vx	2_ground_force_vy	2_ground_force_vz	2_ground_force_px	2_ground_force_py	2_ground_force_pz	2_ground_torque_x	2_ground_torque_y	2_ground_torque_z
            3.751500	            6.521089	          589.018805	          -60.406655	           -0.123371	            0.006151	           -0.383879	            0.036416	            3.289250	           -0.337328	          -31.969556	          663.458608	           83.473053	           -0.052381	            0.006412	           -0.730731	            0.149836	           -3.109516	           -0.391224
            3.752000	            6.661837	          581.985036	          -59.657596	           -0.122776	            0.006152	           -0.383987	            0.037574	            3.282513	           -0.336481	          -31.669389	          658.121033	           82.984598	           -0.052501	            0.006412	           -0.730783	            0.147899	           -3.073481	           -0.387545
            3.752500	            6.710193	          578.196412	          -58.940247	           -0.123042	            0.006151	           -0.383834	            0.037136	            3.199934	           -0.326195	          -31.274877	          652.599762	           82.448525	           -0.052563	            0.006412	           -0.730831	            0.148454	           -3.097727	           -0.391362
            3.753000	            6.988224	          571.883929	          -58.234289	           -0.122697	            0.006152	           -0.383984	            0.036665	            3.000461	           -0.305534	          -30.642027	          645.973535	           82.143043	           -0.052328	            0.006412	           -0.730682	            0.144948	           -3.055691	           -0.388567
            3.753500	            6.853471	          566.653144	          -57.522669	           -0.122512	            0.006152	           -0.384027	            0.034467	            2.849766	           -0.289288	          -30.481119	          640.267506	           81.559477	           -0.052267	            0.006413	           -0.730882	            0.142028	           -2.983343	           -0.380029
            3.754000	            7.132458	          561.960920	          -56.305335	           -0.122504	            0.006150	           -0.383633	            0.036558	            2.880395	           -0.288599	          -29.941949	          633.640894	           81.300956	           -0.052199	            0.006412	           -0.730580	            0.139911	           -2.960851	           -0.379900
            3.754500	            7.272960	          555.648533	          -55.599035	           -0.122134	            0.006151	           -0.383882	            0.038741	            2.959815	           -0.296164	          -29.223412	          629.225150	           80.909463	           -0.052424	            0.006413	           -0.730931	            0.139133	           -2.995753	           -0.385212
            3.755000	            7.367194	          550.418063	          -54.979696	           -0.122179	            0.006151	           -0.383890	            0.041013	            3.064160	           -0.306070	          -28.824830	          622.598366	           80.557160	           -0.052161	            0.006413	           -0.730840	            0.133839	           -2.890833	           -0.374041
            3.755500	            7.828888	          545.006310	          -54.086904	           -0.121893	            0.006151	           -0.383778	            0.044889	            3.124925	           -0.310120	          -28.522127	          616.525110	           79.784508	           -0.052019	            0.006413	           -0.730593	            0.130900	           -2.829501	           -0.366166
            3.756000	            7.739065	          541.038421	          -53.645123	           -0.122162	            0.006149	           -0.383405	            0.041996	            2.935934	           -0.291104	          -28.173680	          610.818587	           79.529351	           -0.051927	            0.006414	           -0.730857	            0.132266	           -2.867584	           -0.373363
            3.756500	            7.833871	          534.545532	          -52.893631	           -0.122008	            0.006150	           -0.383673	            0.039904	            2.722862	           -0.269429	          -27.686756	          605.665601	           79.088409	           -0.052352	            0.006412	           -0.730758	            0.130804	           -2.861422	           -0.373647
            3.757000	            8.019513	          530.216635	          -52.316506	           -0.122027	            0.006149	           -0.383398	            0.039589	            2.617460	           -0.258265	          -27.148268	          599.223358	           78.783625	           -0.051850	            0.006414	           -0.730569	            0.125102	           -2.761292	           -0.363044
            3.757500	            8.023475	          525.344184	          -51.099270	           -0.121883	            0.006149	           -0.383338	            0.041109	            2.691667	           -0.261814	          -26.702235	          592.413044	           78.289853	           -0.051655	            0.006415	           -0.730654	            0.123272	           -2.734910	           -0.361430
            3.758000	            8.071393	          520.835358	          -50.614289	           -0.122045	            0.006148	           -0.383174	            0.043648	            2.816520	           -0.273707	          -26.262180	          587.260056	           77.801995	           -0.051728	            0.006414	           -0.730579	            0.123979	           -2.772355	           -0.367290
            3.758500	            8.441907	          514.521639	          -49.587571	           -0.121576	            0.006149	           -0.383296	            0.048527	            2.957635	           -0.285045	          -25.774010	          581.739459	           77.172011	           -0.051792	            0.006414	           -0.730731	            0.123519	           -2.787921	           -0.369838
            3.759000	            8.307465	          508.208941	          -48.834729	           -0.121219	            0.006149	           -0.383346	            0.046775	            2.861452	           -0.274962	          -25.754236	          576.216333	           76.776874	           -0.051871	            0.006414	           -0.730821	            0.122081	           -2.731389	           -0.363939
            3.759500	            8.584613	          504.240790	          -48.302146	           -0.121495	            0.006148	           -0.383152	            0.046639	            2.739473	           -0.262419	          -25.260543	          569.220936	           76.610930	           -0.051391	            0.006415	           -0.730621	            0.116816	           -2.632338	           -0.354284
            3.760000	            8.677967	          500.093155	          -47.953304	           -0.121497	            0.006148	           -0.383059	            0.044429	            2.560351	           -0.245509	          -24.866635	          563.883365	           76.216291	           -0.051499	            0.006415	           -0.730583	            0.112760	           -2.556976	           -0.345609
            3.760500	            8.681347	          493.419559	          -47.110645	           -0.120975	            0.006148	           -0.383081	            0.041921	            2.382666	           -0.227492	          -24.379794	          558.731049	           75.587621	           -0.051660	            0.006415	           -0.730702	            0.116237	           -2.663887	           -0.360382
            3.761000	            8.867055	          488.730131	          -46.535067	           -0.121172	            0.006149	           -0.383364	            0.044922	            2.476000	           -0.235755	          -24.171188	          552.839481	           75.425739	           -0.051599	            0.006415	           -0.730767	            0.111271	           -2.544970	           -0.347219
            3.761500	            8.870742	          483.497738	          -45.456941	           -0.120757	            0.006148	           -0.383054	            0.047619	            2.595470	           -0.244018	          -23.776011	          547.134009	           74.888994	           -0.051577	            0.006416	           -0.730896	            0.109804	           -2.526807	           -0.345857
            3.762000	            9.102032	          478.988948	          -44.972423	           -0.120761	            0.006148	           -0.383029	            0.050780	            2.672281	           -0.250901	          -23.333967	          541.428660	           74.399165	           -0.051555	            0.006415	           -0.730614	            0.107980	           -2.505513	           -0.344289
            3.762500	            9.196526	          473.577850	          -44.262144	           -0.120707	            0.006148	           -0.383073	            0.051172	            2.635109	           -0.246286	          -22.842268	          534.985624	           74.235192	           -0.051112	            0.006416	           -0.730571	            0.104686	           -2.451827	           -0.340218
            3.763000	            9.244249	          468.889181	          -43.869648	           -0.120541	            0.006148	           -0.383078	            0.047913	            2.430237	           -0.227375	          -22.542888	          529.833134	           73.465825	           -0.051225	            0.006417	           -0.730841	            0.105889	           -2.488752	           -0.345086
            3.763500	            9.293372	          464.017919	          -42.927661	           -0.120638	            0.006146	           -0.382634	            0.046340	            2.313779	           -0.214054	          -22.195827	          524.495393	           73.071206	           -0.051428	            0.006415	           -0.730654	            0.105273	           -2.487632	           -0.346570
            3.764000	            9.432766	          458.788638	          -42.583572	           -0.120511	            0.006147	           -0.382907	            0.045297	            2.203139	           -0.204490	          -21.657404	          518.053531	           72.625629	           -0.051121	            0.006417	           -0.730757	            0.101081	           -2.417889	           -0.338962
            3.764500	            9.893417	          454.099459	          -42.054535	           -0.120481	            0.006146	           -0.382549	            0.050320	            2.309629	           -0.213897	          -21.453677	          513.452850	           71.952129	           -0.051499	            0.006415	           -0.730744	            0.103559	           -2.478491	           -0.347320
